<!--?xml version="1.0" encoding="utf-8"?-->
<!-- Generator: Adobe Illustrator 18.1.1, SVG Export Plug-In . SVG Version: 6.00 Build 0)  -->

<svg version="1.1" id="_x31_0" xmlns="http://www.w3.org/2000/svg" xmlns:xlink="http://www.w3.org/1999/xlink" x="0px" y="0px" viewBox="0 0 512 512" style="width: 32px; height: 32px; opacity: 1;" xml:space="preserve">
<style type="text/css">
	.st0{fill:#374149;}
</style>
<g>
	<path class="st0" d="M490.059,227.948L264.739,3.386c-0.394-0.39-0.903-0.557-1.334-0.884c-0.45-0.347-0.915-0.655-1.405-0.931
		c-0.951-0.537-1.906-0.927-2.94-1.192c-0.438-0.11-0.872-0.197-1.322-0.26c-1.132-0.158-2.226-0.158-3.354-0.004
		c-0.454,0.063-0.9,0.146-1.338,0.256c-1.03,0.261-1.977,0.647-2.92,1.172c-0.494,0.277-0.963,0.588-1.417,0.932
		c-0.43,0.327-0.939,0.485-1.33,0.872L21.981,226.014c-2.344,2.317-3.662,5.474-3.662,8.765v264.897
		c0,6.807,5.517,12.324,12.32,12.324h196.126c6.803,0,12.32-5.517,12.32-12.324V386.639c0-6.807,5.517-12.324,12.324-12.324h9.179
		c6.803,0,12.32,5.517,12.32,12.324v113.037c0,6.807,5.517,12.324,12.324,12.324h196.126c6.807,0,12.324-5.517,12.324-12.324
		V236.678C493.681,233.402,492.375,230.261,490.059,227.948z M189.097,336.648v113.041c0,6.807-5.517,12.324-12.324,12.324H80.63
		c-6.807,0-12.324-5.517-12.324-12.324V255.666c0-3.294,1.318-6.452,3.662-8.764L247.221,73.768
		c4.818-4.755,12.566-4.739,17.36,0.039l175.486,174.898c2.32,2.309,3.626,5.45,3.626,8.725v192.258
		c0,6.807-5.517,12.324-12.324,12.324h-96.151c-6.803,0-12.32-5.517-12.32-12.324V336.648c0-6.803-5.517-12.32-12.324-12.32H201.417
		C194.614,324.328,189.097,329.845,189.097,336.648z" style="fill: rgb(255, 255, 255);"></path>
</g>
</svg>
