<!--?xml version="1.0" encoding="utf-8"?-->
<!-- Generator: Adobe Illustrator 19.1.1, SVG Export Plug-In . SVG Version: 6.00 Build 0)  -->
<svg version="1.1" id="_x31_0" xmlns="http://www.w3.org/2000/svg" xmlns:xlink="http://www.w3.org/1999/xlink" x="0px" y="0px" viewBox="0 0 512 512" style="width: 32px; height: 32px; opacity: 1;" xml:space="preserve">
<style type="text/css">
	.st0{fill:#374149;}
</style>
<g>
	<path class="st0" d="M462.627,60.996h-51.992V47.023c0-25.93-21.09-47.023-47.02-47.023h-20.824
		c-25.93,0-47.023,21.094-47.023,47.023v13.973H216.1V47.023C216.1,21.094,195.006,0,169.213,0h-20.825
		c-25.93,0-47.023,21.094-47.023,47.023v13.973H49.377c-10.348,0-18.813,8.465-18.813,18.942v413.121
		c0,10.481,8.465,18.942,18.813,18.942h413.25c10.348,0,18.809-8.461,18.809-18.942V79.938
		C481.436,69.461,472.975,60.996,462.627,60.996z M148.388,40.305h20.825c3.629,0,6.582,3.094,6.582,6.718v13.973v41.246
		c0,1.609-1.344,2.953-2.953,2.953h-28.215c-1.613,0-2.957-1.344-2.957-2.953V60.996V47.023
		C141.67,43.398,144.627,40.305,148.388,40.305z M342.791,40.305h20.824c3.762,0,6.715,3.094,6.715,6.718v13.973v41.246
		c0,1.609-1.34,2.953-3.09,2.953h-28.078c-1.746,0-3.09-1.344-3.09-2.953V60.996V47.023
		C336.072,43.398,339.162,40.305,342.791,40.305z M427.697,182.851v275.41H84.303V182.848h342.508L427.697,182.851z" style="fill: rgb(255, 255, 255);"></path>
	<polygon class="st0" points="138.045,273.914 138.045,274.07 178.349,274.07 178.349,233.766 138.045,233.766 138.045,273.789 
		138.045,273.914 	" style="fill: rgb(255, 255, 255);"></polygon>
	<rect x="203.201" y="233.766" class="st0" width="40.305" height="40.305" style="fill: rgb(255, 255, 255);"></rect>
	<rect x="268.498" y="233.766" class="st0" width="40.305" height="40.305" style="fill: rgb(255, 255, 255);"></rect>
	<polygon class="st0" points="333.654,273.914 333.654,274.07 373.959,274.07 373.959,233.766 333.654,233.766 333.654,273.789 
		333.654,273.914 	" style="fill: rgb(255, 255, 255);"></polygon>
	<polygon class="st0" points="138.045,339.363 178.349,339.363 178.349,299.062 138.045,299.062 138.045,339.082 138.045,339.203 
		138.045,339.203 	" style="fill: rgb(255, 255, 255);"></polygon>
	<rect x="203.201" y="299.062" class="st0" width="40.305" height="40.301" style="fill: rgb(255, 255, 255);"></rect>
	<rect x="268.498" y="299.062" class="st0" width="40.305" height="40.301" style="fill: rgb(255, 255, 255);"></rect>
	<polygon class="st0" points="333.654,339.363 373.959,339.363 373.959,299.062 333.654,299.062 333.654,339.082 333.654,339.203 
		333.654,339.203 	" style="fill: rgb(255, 255, 255);"></polygon>
	<polygon class="st0" points="138.045,404.523 178.349,404.523 178.349,364.218 138.045,364.218 138.045,404.242 138.045,404.363 
		138.045,404.363 	" style="fill: rgb(255, 255, 255);"></polygon>
	<rect x="203.201" y="364.218" class="st0" width="40.305" height="40.305" style="fill: rgb(255, 255, 255);"></rect>
	<rect x="268.498" y="364.218" class="st0" width="40.305" height="40.305" style="fill: rgb(255, 255, 255);"></rect>
	<polygon class="st0" points="333.654,404.523 373.959,404.523 373.959,364.218 333.654,364.218 333.654,404.242 333.654,404.363 
		333.654,404.363 	" style="fill: rgb(255, 255, 255);"></polygon>
</g>
</svg>
